<?xml version="1.0" encoding="utf-8"?>
<!-- Generator: Adobe Illustrator 22.1.0, SVG Export Plug-In . SVG Version: 6.00 Build 0)  -->
<svg version="1.1" id="Layer_1" xmlns="http://www.w3.org/2000/svg" xmlns:xlink="http://www.w3.org/1999/xlink" x="0px" y="0px"
	 viewBox="0 0 31.9 32" style="enable-background:new 0 0 31.9 32;" xml:space="preserve">
<style type="text/css">
	.st0{fill:url(#SVGID_1_);}
	.st1{fill:url(#SVGID_2_);}
</style>
<linearGradient id="SVGID_1_" gradientUnits="userSpaceOnUse" x1="2" y1="19.0228" x2="23.3596" y2="19.0228">
	<stop  offset="0" style="stop-color:#FFEA83"/>
	<stop  offset="8.333001e-02" style="stop-color:#FFDD35"/>
	<stop  offset="1" style="stop-color:#FFA800"/>
</linearGradient>
<path class="st0" d="M2,19.1c2.5-0.6,4.9-1.3,6.8-3.1c1.5-1.4,2.4-3.1,2.8-5c0.3-1.4,0.6-2.8,0.9-4.2c0-0.1,0.1-0.2,0.1-0.4
	c0.3,1.4,0.6,2.7,0.9,4.1c0.3,1.6,0.9,3,1.9,4.3c1.2,1.5,2.7,2.6,4.4,3.3c1,0.4,2,0.8,3,1c0.2,0,0.3,0,0.5,0.1
	c-0.6,0.1-1.2,0.2-1.7,0.4c-1.5,0.5-3,1-4.2,2c-2,1.5-3.2,3.5-3.8,6c-0.3,1.3-0.5,2.7-0.9,3.9c0,0.1,0,0.2-0.1,0.2
	c-0.4-1.5-0.6-3-0.9-4.4c-0.9-3.5-3-5.8-6.3-7.1C4.2,19.7,3.1,19.3,2,19.1z"/>
<linearGradient id="SVGID_2_" gradientUnits="userSpaceOnUse" x1="17.7588" y1="7.0177" x2="29.1069" y2="7.0177">
	<stop  offset="0" style="stop-color:#FFEA83"/>
	<stop  offset="8.333001e-02" style="stop-color:#FFDD35"/>
	<stop  offset="1" style="stop-color:#FFA800"/>
</linearGradient>
<path class="st1" d="M23.4,13.6c-0.2-0.8-0.3-1.6-0.5-2.4c-0.5-2-1.8-3.3-3.8-3.9c-0.4-0.1-0.8-0.3-1.3-0.3c0.9-0.1,1.7-0.4,2.5-0.8
	c1.5-0.8,2.4-2.1,2.7-3.7c0.2-0.7,0.3-1.4,0.4-2.1c0.1,0,0.1,0.1,0.1,0.2c0.2,0.8,0.3,1.7,0.6,2.5c0.6,1.9,1.9,3,3.7,3.6
	C28.2,6.8,28.6,7,29.1,7c-0.6,0.1-1.2,0.3-1.7,0.5c-2,0.7-3.1,2.2-3.5,4.2C23.7,12.3,23.6,13,23.4,13.6z"/>
</svg>
